<svg width="92" height="91" viewBox="0 0 92 91" fill="none" xmlns="http://www.w3.org/2000/svg">
<path d="M70.6404 70.2141L90.699 89.1066M37.4912 60.6414C37.4912 60.6414 37.4912 51.6975 38.2804 48.7161M39.859 44.2442C43.0161 39.0269 49.3302 36.7909 54.8551 37.5363M58.0121 38.2816C65.1156 39.7723 69.8512 44.2442 69.0619 59.1507M50.1195 66.604V57.6601M56.4336 68.0946V62.132M62.7478 51.6975C62.7478 44.2442 58.0121 42.7536 53.2765 42.7536C48.5409 42.7536 43.8053 44.9895 43.8053 51.6975V65.1133M62.7478 63.6227V56.1694M56.4336 59.1507V54.6788C56.4336 50.9521 55.6443 49.4615 53.2765 49.4615C50.9087 49.4615 50.1195 50.9521 50.1195 54.6788M82.3062 81.1384C38.2489 104.155 6.98103 60.0818 6.98103 60.0818L20.7428 57.1103L4.69897 44.6761L17.4066 43.3318L5.12419 28.4899L18.7304 27.9591L11.5669 7.06883L31.604 16.0451L35.1813 3.10657L48.2035 17.6719L52.5057 4.84376L61.9676 22.762L67.8163 9.39414C67.8163 9.39414 100.264 44.6761 82.3062 81.1384ZM78.5331 52.8942C78.5331 66.0665 67.2253 76.7447 53.2765 76.7447C39.3277 76.7447 28.0199 66.0665 28.0199 52.8942C28.0199 39.722 39.3277 29.0437 53.2765 29.0437C67.2253 29.0437 78.5331 39.722 78.5331 52.8942Z" stroke="white" stroke-width="3"/>
</svg>
