<svg width="92" height="92" viewBox="0 0 92 92" fill="none" xmlns="http://www.w3.org/2000/svg">
<path d="M69.9414 71.1076L90 90M36.7922 61.5348C36.7922 61.5348 36.7922 52.5909 37.5815 49.6096M39.16 45.1376C42.3171 39.9203 48.6312 37.6844 54.1561 38.4297M57.3132 39.175C64.4166 40.6657 69.1522 45.1376 68.3629 60.0442M49.4205 67.4974V58.5535M55.7346 68.9881V63.0255M62.0488 52.5909C62.0488 45.1376 57.3132 43.647 52.5776 43.647C47.842 43.647 43.1063 45.883 43.1063 52.5909V66.0068M62.0488 64.5161V57.0628M55.7346 60.0442V55.5722C55.7346 51.8456 54.9454 50.3549 52.5776 50.3549C50.2098 50.3549 49.4205 51.8456 49.4205 55.5722M81.6073 82.0319C37.5499 105.049 6.28205 60.9752 6.28205 60.9752L20.0439 58.0038L4 45.5695L16.7076 44.2252L4.42522 29.3833L18.0314 28.8526L10.8679 7.96227L30.905 16.9385L34.4823 4L47.5046 18.5653L51.8067 5.73719L61.2686 23.6555L67.1173 10.2876C67.1173 10.2876 99.5648 45.5695 81.6073 82.0319ZM77.8341 53.7876C77.8341 66.9599 66.5263 77.6381 52.5775 77.6381C38.6287 77.6381 27.321 66.9599 27.321 53.7876C27.321 40.6154 38.6287 29.9372 52.5775 29.9372C66.5263 29.9372 77.8341 40.6154 77.8341 53.7876Z" stroke="#7BB23E" stroke-width="3"/>
</svg>
