<svg width="90" height="90" viewBox="0 0 90 90" fill="none" xmlns="http://www.w3.org/2000/svg">
<path d="M68.9414 70.1076L89 89M35.7922 60.5348C35.7922 60.5348 35.7922 51.5909 36.5815 48.6096M38.16 44.1376C41.3171 38.9203 47.6312 36.6844 53.1561 37.4297M56.3132 38.175C63.4166 39.6657 68.1522 44.1376 67.3629 59.0442M48.4205 66.4974V57.5535M54.7346 67.9881V62.0255M61.0488 51.5909C61.0488 44.1376 56.3132 42.647 51.5776 42.647C46.842 42.647 42.1063 44.883 42.1063 51.5909V65.0068M61.0488 63.5161V56.0628M54.7346 59.0442V54.5722C54.7346 50.8456 53.9454 49.3549 51.5776 49.3549C49.2098 49.3549 48.4205 50.8456 48.4205 54.5722M80.6073 81.0319C36.5499 104.049 5.28205 59.9752 5.28205 59.9752L19.0439 57.0038L3 44.5695L15.7076 43.2252L3.42522 28.3833L17.0314 27.8526L9.8679 6.96227L29.905 15.9385L33.4823 3L46.5046 17.5653L50.8067 4.73719L60.2686 22.6555L66.1173 9.28757C66.1173 9.28757 98.5648 44.5695 80.6073 81.0319ZM76.8341 52.7876C76.8341 65.9599 65.5263 76.6381 51.5775 76.6381C37.6287 76.6381 26.321 65.9599 26.321 52.7876C26.321 39.6154 37.6287 28.9372 51.5775 28.9372C65.5263 28.9372 76.8341 39.6154 76.8341 52.7876Z" stroke="#7BB23E" stroke-width="2"/>
</svg>
